<svg width="1200" height="900" viewBox="0 0 1200 900" fill="none" xmlns="http://www.w3.org/2000/svg">
  <defs>
    <linearGradient id="bg" x1="182" y1="118" x2="1018" y2="782" gradientUnits="userSpaceOnUse">
      <stop stop-color="#09111F"/>
      <stop offset="1" stop-color="#121F34"/>
    </linearGradient>
    <linearGradient id="shell" x1="367" y1="282" x2="834" y2="598" gradientUnits="userSpaceOnUse">
      <stop stop-color="#FAFDFF"/>
      <stop offset="1" stop-color="#D8E3F2"/>
    </linearGradient>
    <linearGradient id="accent" x1="480" y1="382" x2="720" y2="563" gradientUnits="userSpaceOnUse">
      <stop stop-color="#7BE6FF"/>
      <stop offset="1" stop-color="#8F85FF"/>
    </linearGradient>
  </defs>
  <rect width="1200" height="900" rx="36" fill="url(#bg)"/>
  <ellipse cx="600" cy="704" rx="314" ry="54" fill="#040811" fill-opacity="0.7"/>
  <path d="M418 311C465 273 533 255 600 255C667 255 735 273 782 311C836 355 868 419 868 487C868 545 833 596 781 612C746 622 713 609 687 579L625 506C619 499 610 495 600 495C590 495 581 499 575 506L513 579C487 609 454 622 419 612C367 596 332 545 332 487C332 419 364 355 418 311Z" fill="url(#shell)"/>
  <path d="M479 334C515 309 559 297 600 297C641 297 685 309 721 334C761 362 786 405 786 452V493C786 522 762 546 733 546H467C438 546 414 522 414 493V452C414 405 439 362 479 334Z" fill="#141E30"/>
  <path d="M494 356C523 334 560 324 600 324C640 324 677 334 706 356C732 376 750 404 757 437H443C450 404 468 376 494 356Z" fill="url(#accent)" fill-opacity="0.35"/>
  <rect x="478" y="422" width="90" height="20" rx="10" fill="#E7F4FF"/>
  <rect x="513" y="388" width="20" height="88" rx="10" fill="#E7F4FF"/>
  <circle cx="723" cy="418" r="17" fill="#EA5B6C"/>
  <circle cx="760" cy="452" r="17" fill="#72D1FF"/>
  <circle cx="686" cy="452" r="17" fill="#9E88FF"/>
  <circle cx="723" cy="486" r="17" fill="#75DA93"/>
  <rect x="559" y="442" width="82" height="25" rx="12.5" fill="#243654"/>
  <circle cx="531" cy="562" r="54" fill="#111B2C"/>
  <circle cx="669" cy="562" r="54" fill="#111B2C"/>
  <circle cx="531" cy="562" r="24" fill="#22395A"/>
  <circle cx="669" cy="562" r="24" fill="#22395A"/>
  <text x="120" y="760" fill="#EFF8FF" font-family="Segoe UI, Arial, sans-serif" font-size="76" font-weight="700">DualSense Controller</text>
  <text x="122" y="820" fill="#82DFFF" font-family="Segoe UI, Arial, sans-serif" font-size="32" letter-spacing="6">WIRELESS PRECISION</text>
</svg>
