<svg width="1200" height="900" viewBox="0 0 1200 900" fill="none" xmlns="http://www.w3.org/2000/svg">
  <defs>
    <linearGradient id="bg" x1="162" y1="98" x2="1038" y2="802" gradientUnits="userSpaceOnUse">
      <stop stop-color="#0A111C"/>
      <stop offset="1" stop-color="#122033"/>
    </linearGradient>
    <linearGradient id="case" x1="356" y1="200" x2="839" y2="702" gradientUnits="userSpaceOnUse">
      <stop stop-color="#CAE9FF"/>
      <stop offset="1" stop-color="#8ED7FF"/>
    </linearGradient>
  </defs>
  <rect width="1200" height="900" rx="36" fill="url(#bg)"/>
  <ellipse cx="600" cy="712" rx="282" ry="48" fill="#050912" fill-opacity="0.7"/>
  <rect x="360" y="160" width="480" height="560" rx="24" fill="url(#case)"/>
  <rect x="386" y="214" width="428" height="468" rx="18" fill="#0E1827"/>
  <rect x="386" y="160" width="428" height="72" rx="18" fill="#D7F0FF"/>
  <text x="426" y="208" fill="#0A1730" font-family="Segoe UI, Arial, sans-serif" font-size="42" font-weight="700">PS5</text>
  <circle cx="600" cy="424" r="138" fill="#16263B"/>
  <path d="M528 507L570 342H616L572 507H528ZM626 507L666 342H782L770 392H698L691 417H758L747 463H681L671 507H626Z" fill="#F4FAFF"/>
  <path d="M465 582C517 536 564 518 611 528C664 539 702 514 736 482" stroke="#65E1FF" stroke-width="16" stroke-linecap="round"/>
  <text x="118" y="772" fill="#EDF8FF" font-family="Segoe UI, Arial, sans-serif" font-size="76" font-weight="700">EA Sports FC 25</text>
  <text x="120" y="830" fill="#84E0FF" font-family="Segoe UI, Arial, sans-serif" font-size="32" letter-spacing="6">PLAYSTATION GAME DISC</text>
</svg>
